<svg width="25" height="24" viewBox="0 0 25 24" fill="none" xmlns="http://www.w3.org/2000/svg">
<g id="view-list" clip-path="url(#clip0_0_124)">
<path id="Vector" d="M19.25 2H5.25C4.69772 2 4.25 2.44772 4.25 3V21C4.25 21.5523 4.69772 22 5.25 22H19.25C19.8023 22 20.25 21.5523 20.25 21V3C20.25 2.44772 19.8023 2 19.25 2Z" stroke="#F4F1ED" stroke-width="2" stroke-linejoin="round"/>
<path id="Vector_2" d="M10.75 7H16.75" stroke="#F4F1ED" stroke-width="2" stroke-linecap="round" stroke-linejoin="round"/>
<path id="Vector_3" d="M10.75 12H16.75" stroke="#F4F1ED" stroke-width="2" stroke-linecap="round" stroke-linejoin="round"/>
<path id="Vector_4" d="M10.75 17H16.75" stroke="#F4F1ED" stroke-width="2" stroke-linecap="round" stroke-linejoin="round"/>
<path id="Vector_5" fill-rule="evenodd" clip-rule="evenodd" d="M7.75 8C8.3023 8 8.75 7.5523 8.75 7C8.75 6.4477 8.3023 6 7.75 6C7.1977 6 6.75 6.4477 6.75 7C6.75 7.5523 7.1977 8 7.75 8Z" fill="#F4F1ED"/>
<path id="Vector_6" fill-rule="evenodd" clip-rule="evenodd" d="M7.75 13C8.3023 13 8.75 12.5523 8.75 12C8.75 11.4477 8.3023 11 7.75 11C7.1977 11 6.75 11.4477 6.75 12C6.75 12.5523 7.1977 13 7.75 13Z" fill="#F4F1ED"/>
<path id="Vector_7" fill-rule="evenodd" clip-rule="evenodd" d="M7.75 18C8.3023 18 8.75 17.5523 8.75 17C8.75 16.4477 8.3023 16 7.75 16C7.1977 16 6.75 16.4477 6.75 17C6.75 17.5523 7.1977 18 7.75 18Z" fill="#F4F1ED"/>
</g>
<defs>
<clipPath id="clip0_0_124">
<rect width="24" height="24" fill="white" transform="translate(0.25)"/>
</clipPath>
</defs>
</svg>
